Coordinates
version=1
nRows=11
nColumns=40
inDegrees=yes

Units are S.I. units (second, meters, Newtons, ...)
Angles are in degrees.

endheader
time	pelvis_tilt	pelvis_list	pelvis_rotation	pelvis_tx	pelvis_ty	pelvis_tz	hip_flexion_r	hip_adduction_r	hip_rotation_r	knee_angle_r	knee_angle_r_beta	ankle_angle_r	subtalar_angle_r	mtp_angle_r	hip_flexion_l	hip_adduction_l	hip_rotation_l	knee_angle_l	knee_angle_l_beta	ankle_angle_l	subtalar_angle_l	mtp_angle_l	lumbar_extension	lumbar_bending	lumbar_rotation	arm_flex_r	arm_add_r	arm_rot_r	elbow_flex_r	pro_sup_r	wrist_flex_r	wrist_dev_r	arm_flex_l	arm_add_l	arm_rot_l	elbow_flex_l	pro_sup_l	wrist_flex_l	wrist_dev_l
      2.67000000	     -6.49827335	     -5.38749158	     -2.97330784	      0.96813763	      0.92156979	      0.50282248	     16.72601125	      5.36388785	     -5.96516786	     22.08330325	     22.08330325	     13.80326937	     -0.29277449	     -0.87123004	     23.58833247	    -11.38106174	      2.60335655	     60.89536037	     60.89536037	      7.91610256	    -18.33809252	     10.35577924	    -11.78384285	      7.71723796	      0.43207146	      3.29251532	    -17.94251100	     -2.33686938	     51.54375110	     37.58046861	      0.00000000	      0.00000000	     14.48476625	    -10.18124296	      2.54916977	     45.92947534	     37.21369884	      0.00000000	      0.00000000
      2.68885714	     -6.09712784	     -5.32810187	     -2.41580221	      0.96862801	      0.92037865	      0.50475208	     16.56958332	      5.45380630	     -5.59224109	     23.40253561	     23.40253561	     14.60883359	     -1.92342106	     -0.72690583	     25.18057338	    -11.33296117	      3.32034020	     62.83792138	     62.83792138	      9.13362179	    -18.79496290	     13.00444388	    -11.96928848	      7.29377452	      0.53810735	      4.71011023	    -18.07422532	     -1.76940664	     53.42033760	     37.95428323	      0.00000000	      0.00000000	     13.15892976	    -10.03789875	      2.82979808	     42.35781108	     37.74935765	      0.00000000	      0.00000000
      2.70771429	     -5.69659375	     -5.27817277	     -1.81930000	      0.96908084	      0.91897654	      0.50670816	     16.42880819	      5.55238734	     -5.34526473	     24.75829770	     24.75829770	     15.33341728	     -3.47256800	     -0.80618443	     26.74556955	    -11.42063718	      3.83148214	     64.43321654	     64.43321654	      9.91799246	    -19.12504226	     14.26028921	    -12.18152711	      6.86524572	      0.27567102	      6.47207506	    -17.91572830	     -1.64788436	     55.28967612	     38.05796434	      0.00000000	      0.00000000	     11.22840112	    -10.18795288	      2.87874872	     39.87482831	     37.94602875	      0.00000000	      0.00000000
      2.72657143	     -5.34144317	     -5.26661998	     -1.15605417	      0.96941536	      0.91737884	      0.50849677	     16.33363865	      5.70930738	     -5.11925794	     26.08640986	     26.08640986	     16.02144115	     -5.16230384	     -0.79108042	     28.34811942	    -11.55842654	      4.28265186	     65.64886617	     65.64886617	     10.91127298	    -19.33030035	     15.89011926	    -12.37221663	      6.49960060	      0.01526340	      8.23685808	    -17.75068111	     -1.40115402	     57.29793584	     38.11180013	      0.00000000	      0.00000000	      9.48352784	    -10.33835555	      2.85878355	     37.21887387	     38.10630375	      0.00000000	      0.00000000
      2.74542857	     -4.94676798	     -5.27452634	     -0.45837628	      0.96971245	      0.91588506	      0.51008755	     16.10266325	      5.91960715	     -4.85087451	     27.23119849	     27.23119849	     16.68339040	     -6.81565874	     -0.55633207	     29.83706429	    -11.69249072	      4.66899661	     66.35624499	     66.35624499	     12.22711411	    -19.45034169	     18.33641229	    -12.60295126	      6.17131307	     -0.16358698	      9.88729125	    -17.74485410	     -0.90440979	     59.66401361	     38.17530389	      0.00000000	      0.00000000	      8.07843516	    -10.36199815	      2.70544376	     34.15727471	     38.33103181	      0.00000000	      0.00000000
      2.76428571	     -4.54075670	     -5.30471714	      0.26537037	      0.96991742	      0.91447330	      0.51124423	     15.80818827	      6.08466806	     -4.83294963	     28.28396992	     28.28396992	     17.53139988	     -8.02374835	      0.12972145	     31.21658966	    -11.80277036	      4.95099591	     66.50436854	     66.50436854	     13.98355155	    -19.51828942	     21.93651099	    -12.88861378	      5.94981929	      0.41133829	     10.85510861	    -18.50235624	      0.11310787	     62.80222394	     38.44397319	      0.00000000	      0.00000000	      7.64488958	     -9.88251540	      1.91947927	     30.11134581	     38.96426354	      0.00000000	      0.00000000
      2.78314286	     -4.27712043	     -5.24008436	      1.03929569	      0.96995162	      0.91299979	      0.51202766	     15.65153396	      6.09940327	     -4.93524841	     29.26143843	     29.26143843	     18.10682329	     -9.14184689	      0.09955024	     32.46043534	    -11.86186285	      4.96823453	     65.75712322	     65.75712322	     14.57597454	    -19.57279773	     22.17213070	    -13.01629650	      5.64548072	      0.11318723	     12.76462124	    -18.01991275	     -0.17016435	     64.72434727	     38.47962895	      0.00000000	      0.00000000	      5.95501534	    -10.13440517	      1.79241798	     28.64470017	     39.07365070	      0.00000000	      0.00000000
      2.80200000	     -4.05067498	     -5.16307431	      1.83388751	      0.96990730	      0.91180075	      0.51242821	     15.40721176	      6.10005732	     -5.04317333	     29.99026255	     29.99026255	     18.61703854	    -10.23302574	      0.20528466	     33.52351401	    -11.77817815	      4.95678001	     64.32485947	     64.32485947	     15.16701359	    -19.59613633	     22.54486271	    -13.10895228	      5.36844185	     -0.15994004	     14.60755784	    -17.54780709	     -0.26958777	     67.04235303	     38.49892150	      0.00000000	      0.00000000	      4.42501759	    -10.33205499	      1.64683683	     27.20605267	     39.19446490	      0.00000000	      0.00000000
      2.82085714	     -3.91549705	     -5.04550854	      2.62435982	      0.96974293	      0.91084894	      0.51229150	     15.15359343	      5.99978801	     -5.24776146	     30.50698988	     30.50698988	     19.06244526	    -11.07207085	      0.37174806	     34.40350568	    -11.49051292	      4.94183350	     62.22327080	     62.22327080	     15.60889195	    -19.59593906	     22.73353211	    -13.13161178	      5.10167314	     -0.30748869	     16.33229403	    -17.16268860	     -0.25307295	     69.65217900	     38.51428704	      0.00000000	      0.00000000	      3.04914266	    -10.44548803	      1.46438089	     25.99227823	     39.33306224	      0.00000000	      0.00000000
      2.83971429	     -3.84392856	     -4.81728112	      3.37473751	      0.96945727	      0.91030210	      0.51167505	     14.85671273	      5.72714182	     -5.49981495	     30.83455191	     30.83455191	     19.46356296	    -11.64999990	      0.47060957	     35.00932322	    -10.93569354	      4.91415729	     59.47782837	     59.47782837	     15.79656657	    -19.56149600	     22.63805824	    -13.11713068	      4.77011157	     -0.31782824	     18.11300902	    -16.76884736	     -0.26647055	     72.12618781	     38.51044854	      0.00000000	      0.00000000	      1.77559948	    -10.54656680	      1.32229757	     25.15494489	     39.43185632	      0.00000000	      0.00000000
      2.85857143	     -3.93420202	     -4.68933523	      4.13009251	      0.96907052	      0.90992151	      0.51063981	     14.61101025	      5.48636817	     -5.93859971	     30.91938536	     30.91938536	     19.87355609	    -11.86987455	      0.84047233	     35.51090964	    -10.30168159	      5.10574446	     56.20532853	     56.20532853	     15.37789868	    -19.49010316	     21.24261530	    -13.00211076	      4.62418814	     -0.08229376	     19.28991432	    -16.80015725	      0.09238287	     76.40892335	     38.61599766	      0.00000000	      0.00000000	      0.59204131	    -10.48769206	      0.76399073	     24.84980002	     39.79271644	      0.00000000	      0.00000000
